<?xml version="1.0" standalone="no"?>
<!DOCTYPE svg PUBLIC "-//W3C//DTD SVG 20010904//EN"
 "http://www.w3.org/TR/2001/REC-SVG-20010904/DTD/svg10.dtd">
<svg version="1.0" xmlns="http://www.w3.org/2000/svg"
 width="648.000000pt" height="648.000000pt" viewBox="0 0 648.000000 648.000000"
 preserveAspectRatio="xMidYMid meet">
<metadata>
Created by potrace 1.11, written by Peter Selinger 2001-2013
</metadata>
<g transform="translate(0.000000,648.000000) scale(0.100000,-0.100000)"
fill="#000000" stroke="none">
<path d="M2028 6265 c-3 -3 -59 -10 -153 -21 -27 -3 -131 -21 -230 -39 -99
-19 -197 -36 -217 -39 -21 -3 -53 -8 -70 -11 -18 -3 -62 -7 -98 -10 -36 -2
-83 -7 -105 -10 -22 -3 -58 -7 -80 -10 -22 -3 -51 -7 -65 -10 -14 -3 -45 -10
-70 -15 -131 -27 -279 -94 -341 -155 -63 -61 -75 -79 -125 -180 -60 -121 -90
-244 -96 -388 -1 -32 -11 -48 -56 -95 -143 -151 -247 -371 -269 -572 -13 -117
-7 -390 12 -505 24 -148 78 -345 127 -462 6 -15 12 -30 13 -33 1 -3 4 -12 8
-20 34 -89 57 -158 57 -172 0 -9 4 -19 9 -22 5 -3 11 -16 14 -28 2 -13 23 -86
46 -163 23 -77 43 -149 46 -160 2 -11 6 -29 9 -40 9 -35 47 -199 52 -224 3
-14 7 -28 9 -32 11 -16 109 -31 171 -25 57 5 64 4 65 -11 0 -10 2 -25 4 -33 1
-8 6 -33 9 -55 4 -23 9 -52 11 -65 3 -14 7 -41 10 -60 2 -19 7 -46 10 -60 3
-14 10 -54 16 -90 5 -36 12 -78 15 -95 3 -16 7 -39 8 -50 2 -11 6 -33 9 -50 3
-16 9 -46 11 -65 3 -19 7 -44 10 -55 2 -11 7 -40 10 -65 3 -25 9 -58 12 -75 3
-16 7 -39 9 -50 1 -11 6 -38 10 -59 4 -22 9 -47 10 -55 1 -14 12 -82 19 -121
2 -8 6 -35 10 -60 4 -25 9 -54 11 -65 2 -11 6 -40 10 -65 l7 -45 394 -198 395
-198 -44 88 c-152 304 -279 563 -280 570 0 4 -12 28 -27 53 -28 48 -42 80 -35
80 2 0 14 -10 27 -23 50 -49 277 -237 286 -237 6 0 12 -4 14 -8 12 -30 270
-179 398 -230 79 -31 349 -119 395 -128 22 -4 90 -8 150 -8 94 0 118 4 165 24
30 13 61 30 68 37 7 7 16 13 20 13 4 0 20 11 35 24 16 14 32 26 35 28 13 6
129 144 159 188 16 25 52 88 79 140 27 52 55 101 63 109 14 16 45 7 251 -69
47 -17 90 -33 95 -34 11 -3 17 -5 135 -53 47 -19 104 -43 127 -54 24 -10 45
-19 48 -19 16 0 380 -178 470 -230 22 -13 58 -33 80 -45 52 -28 230 -142 275
-175 19 -15 62 -46 95 -71 33 -24 62 -46 65 -49 3 -3 32 -28 65 -55 64 -54
149 -138 223 -223 174 -199 239 -261 413 -395 54 -42 192 -111 261 -131 193
-55 360 2 468 160 27 40 75 154 65 154 -3 0 -1 8 4 18 6 11 13 41 17 68 3 27
9 53 12 58 3 5 6 19 8 30 1 12 5 48 9 81 4 33 9 68 11 78 3 17 13 147 19 254
l3 52 -47 15 c-51 16 -119 35 -231 66 -166 45 -184 50 -190 49 -3 0 -18 5 -35
11 -16 7 -37 13 -45 15 -8 3 -38 11 -67 19 -58 16 -56 17 -94 -54 -13 -25 -26
-47 -29 -50 -3 -3 -12 -19 -21 -35 -47 -91 -93 -171 -101 -176 -5 -3 -9 -9 -7
-13 1 -4 -13 -34 -31 -66 l-33 -58 -106 72 c-170 116 -317 204 -561 339 -125
69 -521 267 -535 267 -2 0 -30 12 -62 27 -32 14 -60 27 -63 28 -9 3 -45 17
-140 55 -90 36 -358 129 -390 135 -8 2 -15 4 -15 5 0 1 -7 3 -15 5 -8 2 -24 6
-35 9 -277 75 -274 74 -304 75 -19 1 -22 5 -18 24 5 21 61 187 74 217 3 8 7
20 8 25 2 6 10 36 20 67 16 56 17 57 38 44 22 -14 102 -42 102 -36 0 2 11 -2
23 -9 13 -7 36 -15 50 -17 15 -3 43 -9 62 -14 50 -13 98 -21 153 -25 38 -3 51
0 67 18 11 11 20 26 20 33 0 11 -71 242 -87 284 -3 8 -8 24 -10 34 -2 11 -10
40 -19 65 -9 25 -17 53 -19 61 -2 8 -28 112 -58 230 -96 378 -100 400 -97 540
6 268 1 447 -15 560 -2 14 -6 48 -10 75 -3 28 -16 93 -27 145 -26 121 -24 112
-31 130 -4 8 -8 25 -10 37 -2 12 -6 26 -10 29 -4 4 -7 17 -7 29 0 12 -3 25 -7
29 -5 4 -8 11 -8 14 -1 13 -17 57 -32 89 -14 30 -11 74 4 60 3 -3 21 0 39 8
19 8 34 12 34 10 0 -16 295 118 320 145 3 3 21 17 40 30 36 25 106 93 149 145
40 48 97 165 114 237 21 83 22 186 2 262 -18 69 -64 166 -82 173 -7 3 -13 10
-13 15 0 15 -58 65 -115 98 -71 42 -189 66 -241 49 -28 -10 -35 -4 -73 66 -33
60 -84 127 -131 175 -39 40 -130 113 -130 104 0 -4 -8 0 -17 9 -22 19 -120 63
-176 78 -112 31 -275 25 -388 -16 -24 -8 -48 -17 -53 -18 -5 -1 -27 -11 -50
-23 l-41 -20 -80 36 c-70 33 -106 45 -200 66 -23 6 -302 14 -307 9z"/>
</g>
</svg>
